# xmcd
#
# Track frame offsets: 
#        150
#        23869
#        41917
#        67947
#        93294
#        120310
#        140137
#        167396
#        188734
#        222392
#        256011
#        280754
#        307359
#        330679
#
# Disc length: 4667 seconds
#
# Revision: 0
# Processed by: cddbd v1.5.2PL0 Copyright (c) Steve Scherf et al.
# Submitted via: ExactAudioCopy v0.99pb4
#
DISCID=c812390e
DTITLE=Anna Maria X - Sleepless Drive
DYEAR=2006
DGENRE=House
TTITLE0=Rodamaal - Insomnia (Ame Remix)
TTITLE1=Lank - Spiders On My Speakers
TTITLE2=Nic Fanciulli - Cat Out Of The Bag
TTITLE3=Mr. Gone - Do For Love (Radio Slave Mix)
TTITLE4=Sultan - No Why (Nick-K Remix)
TTITLE5=Deep Mariano - Phobia
TTITLE6=Flash Brothers - My Diction
TTITLE7=Disciples Of Smoke - Groundshaker (Randall Jones Mix)
TTITLE8=A.D.F - 27/12 (Main Mix)
TTITLE9=Mono - Fake In
TTITLE10=Topo - The Style
TTITLE11=Bush II Bush - Jungle Love (Elephant Mix)
TTITLE12=DJ Tarkan and Soul Tan - Deep Dive In Istanbul (16 Bit Lolitas 
TTITLE12=Remix)
TTITLE13=Terry Grant - Beautiful Dirty (Narek Remix)
EXTD=
EXTT0=
EXTT1=
EXTT2=
EXTT3=
EXTT4=
EXTT5=
EXTT6=
EXTT7=
EXTT8=
EXTT9=
EXTT10=
EXTT11=
EXTT12=
EXTT13=
PLAYORDER=
